<?xml version="1.0" standalone="no"?><!DOCTYPE svg PUBLIC "-//W3C//DTD SVG 1.1//EN" "http://www.w3.org/Graphics/SVG/1.1/DTD/svg11.dtd"><svg t="1714654045231" class="icon" viewBox="0 0 1024 1024" version="1.1" xmlns="http://www.w3.org/2000/svg" p-id="8058" xmlns:xlink="http://www.w3.org/1999/xlink" width="32" height="32"><path d="M509.123048 127.585524l292.376381 127.122286a65.999238 65.999238 0 0 1 40.082285 60.367238v273.846857l-73.874285 72.777143V379.294476L521.752381 486.960762v324.583619l17.871238-7.777524 55.808 55.100953-86.308571 37.546666c-17.432381 7.558095-37.302857 7.558095-54.759619 0L161.987048 769.29219A65.999238 65.999238 0 0 1 121.904762 708.924952V315.075048c0-26.112 15.701333-49.785905 40.082286-60.367238l292.376381-127.122286a68.803048 68.803048 0 0 1 54.759619 0zM850.67581 648.533333l51.321904 52.102096-198.948571 195.974095-120.588191-118.979048 51.370667-52.077714 69.266286 68.339809 147.577905-145.359238zM195.754667 376.783238v327.850667L448.609524 814.543238V487.472762l-252.854857-110.689524zM481.743238 195.047619L223.280762 307.395048 484.59581 421.790476l258.438095-113.152L481.743238 195.047619z" p-id="8059"></path></svg>