<?xml version="1.0" standalone="no"?><!DOCTYPE svg PUBLIC "-//W3C//DTD SVG 1.1//EN" "http://www.w3.org/Graphics/SVG/1.1/DTD/svg11.dtd"><svg t="1714654250998" class="icon" viewBox="0 0 1024 1024" version="1.1" xmlns="http://www.w3.org/2000/svg" p-id="8522" xmlns:xlink="http://www.w3.org/1999/xlink" width="32" height="32"><path d="M876.324571 486.058667l51.541334 51.882666-368.323048 365.714286-16.749714-16.871619 16.847238 17.017905h-51.44381v-51.858286l368.152381-365.884952zM780.190476 121.904762a73.142857 73.142857 0 0 1 73.142857 73.142857v219.428571l-73.142857 73.142858V195.047619H243.809524v633.904762h195.047619l-73.142857 73.142857h-121.904762a73.142857 73.142857 0 0 1-73.142857-73.142857V195.047619a73.142857 73.142857 0 0 1 73.142857-73.142857h536.380952zM536.380952 414.47619v73.142858h-195.047619v-73.142858h195.047619z m146.285715-146.285714v73.142857H341.333333v-73.142857h341.333334z" p-id="8523"></path></svg>